<?xml version="1.0" encoding="UTF-8"?><svg id="Layer_2" xmlns="http://www.w3.org/2000/svg" viewBox="0 0 1351.5 490"><g id="Layer_2-2"><path d="M1242.26,.66c-1,.02-73.91,326.89-76.2,324.25-.5-.39-80.97-324.83-82.1-324.65-.5,.39-84.29-.75-84.37,.4-1,.02-72.31,326.75-74.61,324.03,0,0-42.71-200.5-43.46-203.25C851.76,12.19,783.98,.26,694.4,.26l.05,.17L366.78,.06h0c-61.78,0-118.96,0-196.89,0C-77.87-4.91-22.22,293.9,130.91,288.76c20.63,0,80.68,.19,95.53,.19,47.54,0,40.81,50.01,40.81,50.13,0,15.7-18.15,32.92-33.86,33.04-7.85,.06-166.4,.07-222.52,.06v113.74c66.1,.87,160.68,8.2,236.22,.79,83.06-8.16,132.31-58.71,136.77-154.05-1.99-175.81-132.51-118.86-217.61-130.74-23.16-.36-42.44-19.59-42.85-42.74-.44-21.37,16.78-38.94,38.15-38.93,0,0,149.22,.32,203.22,.32,0,0,269.26,.11,331.45,0,53.17-.1,62.76,80.69,6.22,83.65-58.47,.38-183.4-.89-242.17,.51,.52,.52-.98,272.72,.52,272.61,.52-.51,144.02,.98,143.91-.51,0,0,0-151.98,0-151.98,0-.28,.23-.51,.51-.51,51.46-.77,147.04,4.9,193.95-13.16,2.1-.14,30.36,165.75,32.22,165.97,0,0,154.72,0,154.72,0,1.41,.33,51.79-267.54,52.44-267.84,2.81-2.38,59.21,268.04,61.37,267.84,.38-.5,150.28,.86,150.24-.42-.5-.62,103.12-476.47,101.3-476.47-.5,.39-109.13-.76-109.21,.4Z"/></g></svg>