<?xml version="1.0" encoding="UTF-8"?><svg id="Layer_2" xmlns="http://www.w3.org/2000/svg" viewBox="0 0 703.3 254.74"><g id="Layer_2-2"><path d="M646.2,9.1c-7.9,34.96-36.88,162.14-37.91,160.94-.23-.18-31.58-126.5-40.59-161.21-1.33-5.11-5.92-8.68-11.2-8.71-7.83-.04-18.58,.02-26.18,.07-5.35,.04-9.96,3.76-11.11,8.99-7.77,35.12-36.07,161.98-37.11,160.75,0,0-22.75-106.39-22.75-106.39C443.76,6.35,408.28,.1,361.38,.1l.03,.09L189.88,0h0C157.54,0,127.61,.01,86.82,0-29.46-.03-21.43,152.17,66.42,152.17c10.8,0,42.24,.1,50.01,.1,28.61,0,27.21,50.87,3.64,50.87-3.65,0-69.74,.03-104.97,.03-11.4,0-11.51,6.41-11.51,16.75v23.13c0,7.81,3.02,11.51,11.21,11.51,33.56,0,76.83,.17,112.44,.17,44.2,0,72.35-10.74,72.35-70.39,0-56.12-25.98-82.38-70.96-82.38l-47.98-.35c-28.91,0-33.09-50.75,1.81-50.75,0,0,78.11,.17,106.38,.17,0,0,140.95,.06,173.5,0,27.84-.05,32.85,49.04,3.26,50.59-17.8,.12-47.35-.06-75.02-.08-28.54-.02-51.7,28.31-51.76,56.84-.06,26.85-.14,60.6,0,79.97,.05,6.31,5.17,11.41,11.48,11.43,14.16,.04,33.18,.2,47.46,.11,6.33-.04,11.44-5.18,11.44-11.51,0-20.55,0-53.88,0-53.88,0-19.61-3.11-32.04,43.39-32.04,19.98,0,50.69,.62,63.64-11.6,.64-.61,10.56,77.72,14.87,99.92,1.01,5.2,5.55,8.95,10.84,8.95,15.43,0,47.13,0,62.87,0,5.5,0,10.24-3.87,11.33-9.27,6.34-31.25,25.11-130.81,25.4-130.94,1.24-1.05,22.43,99.44,29.72,130.91,1.25,5.4,6.05,9.23,11.6,9.24,15.04,.03,44.74,.21,59.97,.11,5.49-.04,10.21-3.88,11.36-9.25,7.99-37.26,39.23-179.82,48.86-225.95,1.55-7.45-4.11-14.44-11.72-14.48-10.93-.05-25.04,.04-34.11,.11-5.29,.04-9.85,3.72-11.02,8.88Z"/></g></svg>